<?xml version="1.0" standalone="no"?>
<!DOCTYPE svg PUBLIC "-//W3C//DTD SVG 20010904//EN"
 "http://www.w3.org/TR/2001/REC-SVG-20010904/DTD/svg10.dtd">
<svg version="1.0" xmlns="http://www.w3.org/2000/svg"
 width="534.000000pt" height="534.000000pt" viewBox="0 0 534.000000 534.000000"
 preserveAspectRatio="xMidYMid meet">
<metadata>
Created by potrace 1.14, written by Peter Selinger 2001-2017
</metadata>
<g transform="translate(0.000000,534.000000) scale(0.100000,-0.100000)"
fill="#000000" stroke="none">
<path d="M2435 5158 c-235 -29 -505 -132 -709 -271 -163 -110 -322 -273 -436
-447 -135 -206 -231 -470 -256 -707 -8 -72 -7 -294 0 -348 4 -22 9 -60 12 -84
3 -25 7 -48 9 -51 2 -4 7 -22 10 -41 30 -177 170 -527 282 -706 122 -197 219
-320 378 -479 252 -254 525 -438 829 -559 121 -47 278 -92 337 -94 10 -1 19
-13 23 -32 9 -46 69 -99 112 -99 19 0 34 -2 34 -3 0 -2 -18 -48 -40 -101 -22
-54 -42 -112 -45 -130 -13 -70 60 -141 134 -129 l34 5 -7 -47 c-4 -26 -9 -57
-12 -68 -26 -130 -6 -224 61 -296 116 -124 250 -135 495 -44 260 98 374 95
521 -13 44 -32 188 -194 189 -212 1 -4 9 -17 20 -30 l18 -22 49 32 c26 17 50
33 52 34 9 7 -103 156 -169 224 -128 130 -264 192 -412 185 -86 -4 -158 -21
-310 -76 -140 -50 -150 -53 -219 -53 -45 0 -65 5 -98 27 -80 53 -90 99 -61
284 14 96 15 97 70 107 74 13 109 47 116 112 4 41 -12 76 -87 196 l-48 77 36
36 c33 33 35 38 31 89 -4 51 -3 54 31 77 19 13 78 67 131 119 189 188 364 448
485 722 20 46 43 97 50 114 28 60 106 305 120 374 2 8 9 38 15 65 16 69 18 76
26 132 3 26 8 57 10 68 26 139 25 538 -1 661 -3 12 -7 39 -10 60 -4 21 -8 47
-11 56 -3 10 -7 30 -10 45 -11 67 -70 236 -114 329 -100 214 -242 397 -425
550 -66 55 -161 124 -172 124 -3 0 -14 6 -22 14 -25 22 -207 111 -289 140 -83
30 -215 64 -275 72 -23 3 -60 9 -82 13 -57 11 -316 10 -400 -1z"/>
</g>
</svg>
